# xmcd
#
# Track frame offsets: 
#        300
#        14294
#        34088
#        43716
#        60801
#        81076
#        92549
#        126270
#        137527
#        151444
#        166816
#        178686
#        188369
#        203644
#        218835
#
# Disc length: 3470 seconds
#
# Revision: 0
# Processed by: cddbd v1.5.2PL0 Copyright (c) Steve Scherf et al.
# Submitted via: ExactAudioCopy v0.99pb5
#
DISCID=b70d8a0f
DTITLE=Bob Margolin - In North Carolina
DYEAR=2006
DGENRE=General Blues
TTITLE0=Tell Me Why
TTITLE1=In North Carolina
TTITLE2=You Rascal You
TTITLE3=Just Before Dawn
TTITLE4=Colleen
TTITLE5=Lonely Man
TTITLE6=Tears of Rage
TTITLE7=Natural Blues
TTITLE8=Bring Me Your Blues
TTITLE9=Red Hot Kisses
TTITLE10=Hard Feelings
TTITLE11=Floyd's Guitar Blues
TTITLE12=She and the Devil
TTITLE13=Baby, Baby, Baby
TTITLE14=You Never Know
EXTD=
EXTT0=
EXTT1=
EXTT2=
EXTT3=
EXTT4=
EXTT5=
EXTT6=
EXTT7=
EXTT8=
EXTT9=
EXTT10=
EXTT11=
EXTT12=
EXTT13=
EXTT14=
PLAYORDER=
